<svg width="139" height="138" viewBox="0 0 139 138" fill="none" xmlns="http://www.w3.org/2000/svg">
<rect width="138" height="138" transform="translate(0.5)" fill="#E0B1E6"/>
<path d="M51.782 32.7851L57.1686 36.8991C57.7862 37.371 58.2459 38.0363 58.4818 38.7996C58.7177 39.563 58.7176 40.3853 58.4816 41.1486L56.4254 47.8055C56.1896 48.5689 56.1897 49.3911 56.4256 50.1544C56.6616 50.9176 57.1214 51.5828 57.7391 52.0545C58.3568 52.5263 59.1007 52.7804 59.8642 52.7804C60.6277 52.7804 61.3716 52.5264 61.9893 52.0547L67.3764 47.9407C67.9941 47.4689 68.738 47.2147 69.5015 47.2147C70.265 47.2147 71.0089 47.4689 71.6265 47.9407L77.0137 52.0547C77.6314 52.5264 78.3753 52.7804 79.1388 52.7804C79.9023 52.7804 80.6462 52.5263 81.2639 52.0545C81.8816 51.5828 82.3413 50.9176 82.5773 50.1544C82.8133 49.3911 82.8134 48.5689 82.5775 47.8055L80.519 41.1486C80.283 40.3853 80.2829 39.563 80.5188 38.7997C80.7547 38.0363 81.2144 37.371 81.832 36.8991L87.2188 32.7851C87.8365 32.3133 88.2963 31.648 88.5322 30.8847C88.7681 30.1213 88.7681 29.299 88.5321 28.5357C88.2962 27.7723 87.8364 27.1071 87.2186 26.6353C86.6009 26.1635 85.8569 25.9095 85.0934 25.9095H78.4365C77.6729 25.9094 76.929 25.6552 76.3113 25.1835C75.6935 24.7117 75.2337 24.0465 74.9977 23.2832L72.9395 16.6264C72.7036 15.863 72.2439 15.1977 71.6262 14.7259C71.0084 14.2541 70.2645 14 69.5009 14C68.7374 14 67.9934 14.2541 67.3757 14.7259C66.758 15.1977 66.2982 15.863 66.0623 16.6264L64.0046 23.2832C63.7685 24.0467 63.3086 24.712 62.6907 25.1838C62.0728 25.6556 61.3287 25.9096 60.565 25.9095H53.9074C53.1438 25.9095 52.3999 26.1635 51.7821 26.6353C51.1644 27.1071 50.7046 27.7723 50.4686 28.5357C50.2326 29.299 50.2326 30.1213 50.4686 30.8847C50.7045 31.648 51.1643 32.3133 51.782 32.7851Z" fill="#703778"/>
<path d="M79.4188 91.7809C79.0344 91.6071 78.7068 91.3186 78.4766 90.9511C78.2465 90.5836 78.1239 90.1532 78.1241 89.7132C78.1213 89.3989 78.1801 89.0872 78.2968 88.7977C78.4134 88.5082 78.5854 88.247 78.8021 88.0303C78.9343 87.8979 79.0609 87.7673 79.1557 87.6623C79.8263 86.9201 80.4179 86.1033 80.92 85.2264C82.2408 82.9094 82.8956 80.2401 82.8053 77.5406C82.715 74.8411 81.8834 72.2267 80.4111 70.013C78.9387 67.7992 76.8883 66.0807 74.5074 65.0647C72.1265 64.0487 69.5168 63.7786 66.9931 64.2871C64.4214 64.7605 62.0446 66.0363 60.172 67.9487C58.2993 69.8611 57.0173 72.3215 56.4927 75.0101C56.0079 77.325 56.0904 79.7316 56.7325 82.0038C57.3746 84.2761 58.5553 86.3397 60.1638 88.001C60.3821 88.2185 60.5568 88.4797 60.6777 88.7691C60.7987 89.0586 60.8634 89.3705 60.8681 89.6866V89.6983C60.872 90.1419 60.7512 90.5768 60.5209 90.9486C60.2905 91.3203 59.9609 91.6122 59.5734 91.7878C54.2686 94.0977 50.0384 98.5041 47.7928 104.059C46.2141 107.863 45.4222 111.977 45.4695 116.127V119.117C45.4695 119.759 45.5897 120.394 45.8232 120.986C46.0567 121.579 46.399 122.117 46.8305 122.571C47.2619 123.024 47.7741 123.384 48.3378 123.629C48.9015 123.874 49.5057 124 50.1157 124H88.8876C90.1193 124 91.3005 123.486 92.1714 122.57C93.0423 121.654 93.5316 120.413 93.5316 119.118V116.097C93.5788 111.949 92.7855 107.837 91.2045 104.036C88.9548 98.4856 84.7229 94.0852 79.4188 91.7809Z" fill="#703778"/>
<path d="M122.171 97.2919C119.921 91.7421 115.69 87.3418 110.386 85.0373C110.002 84.8633 109.674 84.5748 109.444 84.2073C109.214 83.8399 109.091 83.4096 109.091 82.9697C109.089 82.6552 109.148 82.3436 109.264 82.0541C109.381 81.7646 109.553 81.5033 109.77 81.2866C109.902 81.1539 110.029 81.0235 110.123 80.9183C110.794 80.1767 111.385 79.3604 111.888 78.4837C113.209 76.1668 113.863 73.4975 113.773 70.7979C113.683 68.0984 112.852 65.4839 111.379 63.2701C109.907 61.0563 107.856 59.3377 105.475 58.3217C103.094 57.3057 100.485 57.0357 97.961 57.5443C95.3892 58.0175 93.0123 59.2933 91.1396 61.2057C89.2669 63.1181 87.985 65.5786 87.4606 68.2672C86.9757 70.5822 87.0581 72.9887 87.7002 75.261C88.3423 77.5333 89.5229 79.5968 91.1313 81.2582C91.3497 81.4756 91.5244 81.7367 91.6454 82.0261C91.7663 82.3156 91.831 82.6275 91.8356 82.9436V82.9557C91.8397 83.3993 91.7189 83.8343 91.4886 84.2061C91.2582 84.5778 90.9285 84.8697 90.5409 85.0452C88.4223 85.9574 86.4553 87.2184 84.7139 88.7808C89.5999 91.826 93.4424 96.4203 95.6898 101.904C97.5653 106.374 98.5081 111.214 98.4546 116.099V117.258H119.854C121.085 117.258 122.267 116.743 123.138 115.828C124.009 114.912 124.498 113.671 124.498 112.376V109.354C124.545 105.205 123.752 101.093 122.171 97.2919Z" fill="#703778"/>
<path d="M54.2918 88.7795C52.5469 87.2133 50.5753 85.95 48.4515 85.0373C48.0671 84.8634 47.7396 84.5748 47.5095 84.2074C47.2794 83.8399 47.1567 83.4096 47.1567 82.9697C47.154 82.6552 47.2129 82.3436 47.3296 82.054C47.4464 81.7645 47.6185 81.5033 47.8353 81.2866C47.9669 81.1539 48.0939 81.0236 48.1887 80.9183C48.8591 80.1766 49.4506 79.3603 49.9527 78.4838C51.2737 76.1668 51.9287 73.4975 51.8385 70.798C51.7484 68.0984 50.9169 65.4839 49.4446 63.2701C47.9722 61.0562 45.9218 59.3376 43.5408 58.3216C41.1598 57.3056 38.55 57.0357 36.0263 57.5443C33.4545 58.0176 31.0777 59.2934 29.205 61.2058C27.3323 63.1182 26.0503 65.5787 25.5257 68.2673C25.041 70.5822 25.1235 72.9887 25.7656 75.261C26.4077 77.5332 27.5883 79.5968 29.1967 81.2582C29.415 81.4756 29.5898 81.7367 29.7108 82.0261C29.8317 82.3156 29.8964 82.6275 29.9009 82.9436V82.9557C29.9049 83.3993 29.7842 83.8343 29.5538 84.206C29.3235 84.5778 28.9938 84.8697 28.6062 85.0452C23.3015 87.3551 19.0714 91.7614 16.8256 97.3163C15.2469 101.121 14.4548 105.234 14.502 109.384V112.376C14.502 113.017 14.6221 113.652 14.8554 114.244C15.0888 114.837 15.4309 115.375 15.8621 115.828C16.2934 116.281 16.8053 116.641 17.3688 116.886C17.9322 117.132 18.5361 117.258 19.146 117.258H40.5468V116.128C40.4937 111.243 41.4342 106.403 43.3054 101.931C45.551 96.4356 49.3977 91.8306 54.2918 88.7795Z" fill="#703778"/>
</svg>
