<svg width="138" height="138" viewBox="0 0 138 138" fill="none" xmlns="http://www.w3.org/2000/svg">
<rect width="138" height="138" fill="#400647"/>
<path d="M51.2819 32.7851L56.6685 36.8991C57.2862 37.371 57.7459 38.0363 57.9818 38.7996C58.2177 39.563 58.2176 40.3853 57.9815 41.1486L55.9254 47.8055C55.6896 48.5689 55.6896 49.3911 55.9256 50.1544C56.1616 50.9176 56.6214 51.5828 57.2391 52.0545C57.8567 52.5263 58.6006 52.7804 59.3641 52.7804C60.1276 52.7804 60.8715 52.5264 61.4893 52.0547L66.8764 47.9407C67.494 47.4689 68.2379 47.2147 69.0014 47.2147C69.765 47.2147 70.5089 47.4689 71.1265 47.9407L76.5136 52.0547C77.1314 52.5264 77.8753 52.7804 78.6388 52.7804C79.4023 52.7804 80.1461 52.5263 80.7638 52.0545C81.3815 51.5828 81.8413 50.9176 82.0773 50.1544C82.3133 49.3911 82.3133 48.5689 82.0775 47.8055L80.019 41.1486C79.783 40.3853 79.7829 39.563 80.0188 38.7997C80.2546 38.0363 80.7143 37.371 81.332 36.8991L86.7188 32.7851C87.3365 32.3133 87.7962 31.648 88.0322 30.8847C88.2681 30.1213 88.2681 29.299 88.0321 28.5357C87.7961 27.7723 87.3363 27.1071 86.7186 26.6353C86.1009 26.1635 85.3569 25.9095 84.5933 25.9095H77.9364C77.1729 25.9094 76.429 25.6552 75.8112 25.1835C75.1935 24.7117 74.7337 24.0465 74.4976 23.2832L72.4395 16.6264C72.2036 15.863 71.7438 15.1977 71.1261 14.7259C70.5084 14.2541 69.7645 14 69.0009 14C68.2373 14 67.4934 14.2541 66.8757 14.7259C66.258 15.1977 65.7982 15.863 65.5623 16.6264L63.5045 23.2832C63.2685 24.0467 62.8086 24.712 62.1907 25.1838C61.5728 25.6556 60.8287 25.9096 60.065 25.9095H53.4074C52.6438 25.9095 51.8998 26.1635 51.2821 26.6353C50.6644 27.1071 50.2046 27.7723 49.9686 28.5357C49.7326 29.299 49.7326 30.1213 49.9685 30.8847C50.2045 31.648 50.6642 32.3133 51.2819 32.7851Z" fill="#FCE7FF"/>
<path d="M78.9188 91.7809C78.5343 91.6071 78.2067 91.3186 77.9766 90.9511C77.7465 90.5836 77.6239 90.1532 77.624 89.7132C77.6213 89.3989 77.6801 89.0872 77.7967 88.7977C77.9134 88.5082 78.0854 88.247 78.3021 88.0303C78.4343 87.8979 78.5608 87.7673 78.6557 87.6623C79.3262 86.9201 79.9178 86.1033 80.42 85.2264C81.7408 82.9094 82.3956 80.2401 82.3052 77.5406C82.2149 74.8411 81.3834 72.2267 79.911 70.013C78.4386 67.7992 76.3883 66.0807 74.0074 65.0647C71.6265 64.0487 69.0167 63.7786 66.4931 64.2871C63.9213 64.7605 61.5446 66.0363 59.6719 67.9487C57.7993 69.8611 56.5173 72.3215 55.9927 75.0101C55.5078 77.325 55.5904 79.7316 56.2325 82.0038C56.8746 84.2761 58.0553 86.3397 59.6638 88.001C59.882 88.2185 60.0568 88.4797 60.1777 88.7691C60.2986 89.0586 60.3634 89.3705 60.3681 89.6866V89.6983C60.372 90.1419 60.2512 90.5768 60.0209 90.9486C59.7905 91.3203 59.4609 91.6122 59.0733 91.7878C53.7686 94.0977 49.5384 98.5041 47.2928 104.059C45.7141 107.863 44.9222 111.977 44.9695 116.127V119.117C44.9695 119.759 45.0897 120.394 45.3232 120.986C45.5567 121.579 45.899 122.117 46.3304 122.571C46.7619 123.024 47.2741 123.384 47.8378 123.629C48.4015 123.874 49.0056 124 49.6157 124H88.3876C89.6193 124 90.8005 123.486 91.6714 122.57C92.5423 121.654 93.0316 120.413 93.0316 119.118V116.097C93.0788 111.949 92.2855 107.837 90.7045 104.036C88.4547 98.4856 84.2228 94.0852 78.9188 91.7809Z" fill="#FCE7FF"/>
<path d="M121.671 97.2919C119.421 91.7421 115.19 87.3418 109.886 85.0373C109.502 84.8633 109.174 84.5748 108.944 84.2073C108.714 83.8399 108.591 83.4096 108.591 82.9697C108.589 82.6552 108.648 82.3436 108.764 82.0541C108.881 81.7646 109.053 81.5033 109.27 81.2866C109.402 81.1539 109.529 81.0235 109.623 80.9183C110.294 80.1767 110.885 79.3604 111.388 78.4837C112.709 76.1668 113.363 73.4975 113.273 70.7979C113.183 68.0984 112.352 65.4839 110.879 63.2701C109.407 61.0563 107.356 59.3377 104.975 58.3217C102.594 57.3057 99.9847 57.0357 97.461 57.5443C94.8892 58.0175 92.5123 59.2933 90.6396 61.2057C88.7669 63.1181 87.485 65.5786 86.9606 68.2672C86.4757 70.5822 86.5581 72.9887 87.2002 75.261C87.8423 77.5333 89.0229 79.5968 90.6313 81.2582C90.8497 81.4756 91.0244 81.7367 91.1454 82.0261C91.2663 82.3156 91.331 82.6275 91.3356 82.9436V82.9557C91.3397 83.3993 91.2189 83.8343 90.9886 84.2061C90.7582 84.5778 90.4285 84.8697 90.0409 85.0452C87.9223 85.9574 85.9553 87.2184 84.2139 88.7808C89.0999 91.826 92.9424 96.4203 95.1898 101.904C97.0653 106.374 98.0081 111.214 97.9546 116.099V117.258H119.354C120.585 117.258 121.767 116.743 122.638 115.828C123.509 114.912 123.998 113.671 123.998 112.376V109.354C124.045 105.205 123.252 101.093 121.671 97.2919Z" fill="#FCE7FF"/>
<path d="M53.7918 88.7795C52.0469 87.2133 50.0753 85.95 47.9515 85.0373C47.5671 84.8634 47.2396 84.5748 47.0095 84.2074C46.7794 83.8399 46.6567 83.4096 46.6567 82.9697C46.654 82.6552 46.7129 82.3436 46.8296 82.054C46.9464 81.7645 47.1185 81.5033 47.3353 81.2866C47.4669 81.1539 47.5939 81.0236 47.6887 80.9183C48.3591 80.1766 48.9506 79.3603 49.4527 78.4838C50.7737 76.1668 51.4287 73.4975 51.3385 70.798C51.2484 68.0984 50.4169 65.4839 48.9446 63.2701C47.4722 61.0562 45.4218 59.3376 43.0408 58.3216C40.6598 57.3056 38.05 57.0357 35.5263 57.5443C32.9545 58.0176 30.5777 59.2934 28.705 61.2058C26.8323 63.1182 25.5503 65.5787 25.0257 68.2673C24.541 70.5822 24.6235 72.9887 25.2656 75.261C25.9077 77.5332 27.0883 79.5968 28.6967 81.2582C28.915 81.4756 29.0898 81.7367 29.2108 82.0261C29.3317 82.3156 29.3964 82.6275 29.4009 82.9436V82.9557C29.4049 83.3993 29.2842 83.8343 29.0538 84.206C28.8235 84.5778 28.4938 84.8697 28.1062 85.0452C22.8015 87.3551 18.5714 91.7614 16.3256 97.3163C14.7469 101.121 13.9548 105.234 14.002 109.384V112.376C14.002 113.017 14.1221 113.652 14.3554 114.244C14.5888 114.837 14.9309 115.375 15.3621 115.828C15.7934 116.281 16.3053 116.641 16.8688 116.886C17.4322 117.132 18.0361 117.258 18.646 117.258H40.0468V116.128C39.9937 111.243 40.9342 106.403 42.8054 101.931C45.051 96.4356 48.8977 91.8306 53.7918 88.7795Z" fill="#FCE7FF"/>
</svg>
