<svg width="138" height="138" viewBox="0 0 138 138" fill="none" xmlns="http://www.w3.org/2000/svg">
<rect width="138" height="138" fill="#400647"/>
<path d="M49.8333 126.5C60.4133 126.5 69 117.913 69 107.333V88.1667H49.8333C39.2533 88.1667 30.6667 96.7534 30.6667 107.333C30.6667 117.913 39.2533 126.5 49.8333 126.5Z" fill="#0ACF83"/>
<path d="M30.6667 68.9999C30.6667 58.4199 39.2533 49.8333 49.8333 49.8333H69V88.1666H49.8333C39.2533 88.1666 30.6667 79.5799 30.6667 68.9999Z" fill="#A259FF"/>
<path d="M30.6667 30.6667C30.6667 20.0867 39.2533 11.5 49.8333 11.5H69V49.8333H49.8333C39.2533 49.8333 30.6667 41.2467 30.6667 30.6667Z" fill="#F24E1E"/>
<path d="M69 11.5H88.1667C98.7467 11.5 107.333 20.0867 107.333 30.6667C107.333 41.2467 98.7467 49.8333 88.1667 49.8333H69V11.5Z" fill="#FF7262"/>
<path d="M107.333 68.9999C107.333 79.5799 98.7467 88.1666 88.1667 88.1666C77.5867 88.1666 69 79.5799 69 68.9999C69 58.4199 77.5867 49.8333 88.1667 49.8333C98.7467 49.8333 107.333 58.4199 107.333 68.9999Z" fill="#1ABCFE"/>
</svg>
