<svg width="140" height="140" viewBox="0 0 140 140" fill="none" xmlns="http://www.w3.org/2000/svg">
<rect width="140" height="140" fill="#E0B1E6"/>
<path d="M44.2965 45.1537C42.9389 44.0263 41.1901 43.4823 39.4326 43.6408C37.675 43.7992 36.0518 44.6472 34.9178 45.9993L18.2677 65.9794C17.2656 67.1753 16.7164 68.6858 16.7164 70.246C16.7164 71.8062 17.2656 73.3166 18.2677 74.5125L34.9178 94.4927C35.4763 95.1694 36.1632 95.7291 36.9388 96.1395C37.7143 96.5499 38.5634 96.803 39.4371 96.8842C40.3109 96.9654 41.192 96.873 42.03 96.6125C42.8679 96.352 43.6461 95.9284 44.3197 95.3661C44.9934 94.8039 45.5493 94.114 45.9555 93.3362C46.3616 92.5583 46.61 91.7079 46.6864 90.8337C46.7628 89.9595 46.6656 89.0789 46.4005 88.2424C46.1354 87.4059 45.7075 86.6301 45.1416 85.9595L32.043 70.2462L45.1419 54.5326C46.2731 53.1766 46.8195 51.4269 46.6609 49.6682C46.5024 47.9094 45.6519 46.2856 44.2965 45.1537Z" fill="#703778"/>
<path d="M77.9608 30.416C76.2308 30.0884 74.4413 30.4527 72.977 31.4306C71.5127 32.4084 70.4905 33.9218 70.1301 35.6453L56.81 102.246C56.6373 103.103 56.6356 103.987 56.8051 104.845C56.9747 105.703 57.312 106.52 57.7979 107.247C58.2838 107.975 58.9086 108.599 59.6364 109.084C60.3643 109.57 61.1809 109.907 62.0393 110.076C62.4715 110.165 62.9118 110.208 63.353 110.206C64.8912 110.204 66.3811 109.668 67.5692 108.691C68.7573 107.714 69.5703 106.356 69.8699 104.847L83.1901 38.2468C83.3629 37.3891 83.3646 36.5057 83.1951 35.6473C83.0256 34.789 82.6882 33.9726 82.2024 33.2449C81.7165 32.5173 81.0917 31.8929 80.3638 31.4074C79.6359 30.9219 78.8193 30.585 77.9608 30.416Z" fill="#703778"/>
<path d="M121.732 65.9795L105.082 45.9994C104.524 45.3227 103.837 44.763 103.061 44.3526C102.286 43.9421 101.437 43.6891 100.563 43.6079C99.6892 43.5267 98.808 43.6191 97.9701 43.8796C97.1322 44.1401 96.354 44.5637 95.6803 45.1259C95.0067 45.6882 94.4508 46.3781 94.0446 47.1559C93.6385 47.9338 93.3901 48.7842 93.3137 49.6584C93.2373 50.5325 93.3345 51.4132 93.5996 52.2497C93.8647 53.0862 94.2926 53.862 94.8585 54.5326L107.957 70.2463L94.8582 85.9599C94.2922 86.6305 93.8644 87.4063 93.5993 88.2428C93.3341 89.0793 93.237 89.9599 93.3134 90.8341C93.3897 91.7082 93.6381 92.5587 94.0443 93.3365C94.4504 94.1143 95.0063 94.8042 95.68 95.3665C96.3537 95.9288 97.1319 96.3524 97.9698 96.6129C98.8077 96.8734 99.6889 96.9657 100.563 96.8845C101.436 96.8034 102.285 96.5503 103.061 96.1399C103.837 95.7295 104.523 95.1698 105.082 94.493L121.732 74.5127C122.734 73.3168 123.284 71.8063 123.284 70.2461C123.284 68.6859 122.734 67.1754 121.732 65.9795Z" fill="#703778"/>
</svg>
