<svg width="138" height="138" viewBox="0 0 138 138" fill="none" xmlns="http://www.w3.org/2000/svg">
<g clip-path="url(#clip0_25_169)">
<path d="M132.375 3.375H1.125V134.625H132.375V3.375Z" fill="url(#paint0_radial_25_169)"/>
<path d="M135.5 137.75H-2V0.25H135.5V137.75ZM4.25 131.5H129.25V6.5H4.25V131.5Z" fill="#F47521"/>
<path d="M69.875 75.25H44.875V87.75H69.875V75.25Z" fill="#F47521"/>
<path d="M107.375 59.625H94.875V106.5H107.375V59.625Z" fill="#F47521"/>
<path d="M101.125 56.5C104.577 56.5 107.375 53.7018 107.375 50.25C107.375 46.7982 104.577 44 101.125 44C97.6732 44 94.875 46.7982 94.875 50.25C94.875 53.7018 97.6732 56.5 101.125 56.5Z" fill="#F47521"/>
<path d="M50.8122 31.5L26.8116 106.5H39.9384L57.375 52.0078L74.8116 106.5H87.9384L63.9378 31.5H50.8122Z" fill="#F47521"/>
<path d="M135.5 137.75H-2V0.25H135.5V137.75Z" fill="url(#paint1_linear_25_169)"/>
</g>
<defs>
<radialGradient id="paint0_radial_25_169" cx="0" cy="0" r="1" gradientUnits="userSpaceOnUse" gradientTransform="translate(46.9583 32.5417) scale(109.927)">
<stop stop-color="#3C1605" stop-opacity="0.98"/>
<stop offset="1" stop-color="#1A1107"/>
</radialGradient>
<linearGradient id="paint1_linear_25_169" x1="-16.0536" y1="30.388" x2="149.554" y2="107.612" gradientUnits="userSpaceOnUse">
<stop stop-color="white" stop-opacity="0.2"/>
<stop offset="1" stop-color="white" stop-opacity="0"/>
</linearGradient>
<clipPath id="clip0_25_169">
<rect width="138" height="138" fill="white"/>
</clipPath>
</defs>
</svg>
