<svg width="138" height="138" viewBox="0 0 138 138" fill="none" xmlns="http://www.w3.org/2000/svg">
<g clip-path="url(#clip0_25_147)">
<path d="M134.375 3.375H3.125V134.625H134.375V3.375Z" fill="url(#paint0_radial_25_147)"/>
<path d="M137.5 137.75H0V0.25H137.5V137.75ZM6.25 131.5H131.25V6.5H6.25V131.5Z" fill="#EE3D8B"/>
<path d="M56.25 31.5H43.75V106.5H56.25V31.5Z" fill="#EE3D8B"/>
<path d="M106.25 106.5L85.0048 106.5C74.5661 106.5 65.0662 99.446 62.9712 89.2196C60.0909 75.1605 70.8129 62.75 84.375 62.75H93.75V44H106.25V106.5ZM84.375 75.25C79.2053 75.25 75 79.4553 75 84.625C75 89.7947 79.2053 94 84.375 94H93.75V75.25H84.375Z" fill="#EE3D8B"/>
<path d="M137.5 137.75H0V0.25H137.5V137.75Z" fill="url(#paint1_linear_25_147)"/>
</g>
<defs>
<radialGradient id="paint0_radial_25_147" cx="0" cy="0" r="1" gradientUnits="userSpaceOnUse" gradientTransform="translate(48.9583 32.5417) scale(109.927)">
<stop stop-color="#4B1325" stop-opacity="0.98"/>
<stop offset="1" stop-color="#1A1107"/>
</radialGradient>
<linearGradient id="paint1_linear_25_147" x1="-14.0536" y1="30.388" x2="151.554" y2="107.612" gradientUnits="userSpaceOnUse">
<stop stop-color="white" stop-opacity="0.2"/>
<stop offset="1" stop-color="white" stop-opacity="0"/>
</linearGradient>
<clipPath id="clip0_25_147">
<rect width="138" height="138" fill="white"/>
</clipPath>
</defs>
</svg>
