<?xml version="1.0" encoding="UTF-8"?>
<svg id="Layer_2" data-name="Layer 2" xmlns="http://www.w3.org/2000/svg" viewBox="0 0 86.64 44.93">
  <defs>
    <style>
      .cls-1 {
        fill: #fce7ff;
        stroke-width: 0px;
      }
    </style>
  </defs>
  <g id="Layer_6" data-name="Layer 6">
    <g>
      <path class="cls-1" d="m16.54,14.72c.28-.17.6-.28.95-.28,1.02,0,1.86.84,1.87,1.9s-.81,1.92-1.83,1.93c-.35,0-.67-.09-.96-.27.8-.09,1.42-.8,1.41-1.65,0-.85-.64-1.55-1.44-1.63Z"/>
      <rect class="cls-1" x="16.27" y="21.84" width="3.41" height="21.7"/>
      <polygon class="cls-1" points="37.11 0 37.37 30.13 26.33 22.85 26.33 43.45 22.7 43.45 22.7 16.35 33.56 23.55 33.56 3.66 37.11 0"/>
      <polygon class="cls-1" points="38.93 21.1 38.91 43.68 49.52 43.44 52.82 39.83 52.84 25.34 49.36 25.36 49.36 37.99 47.68 39.87 42.49 39.89 42.48 24.14 38.93 21.1"/>
      <path class="cls-1" d="m58.54,30.59s4.48,9.41,16.77,10.43c-.05.02,1.26,3.77,1.18,3.89-3.59.27-12.87-2.41-17.85-7.57-2.61-2.7-4.2-6.79-4.2-6.79l4.1.03Z"/>
      <path class="cls-1" d="m54.44,25.37l6.41-.1c1.87,0,4.15-.79,4.15-2.3v-2.05c0-1.58-2.35-2.53-4.31-2.53h-11.34v-3.41h12.59c3.6,0,6.51,2.16,6.51,5.66v2.84c0,3.35-2.79,5.31-6.24,5.31h-7.83"/>
      <polygon class="cls-1" points="69.95 18.27 77.92 44.39 80.25 39.85 75.98 25.85 84.92 30.79 86.64 27.45 69.95 18.27"/>
      <polygon class="cls-1" points="13.28 16.35 13.28 43.66 9.73 40 9.73 25.36 2.62 32.69 0 30 13.28 16.35"/>
    </g>
  </g>
</svg>