<?xml version="1.0" encoding="utf-8"?>
<!-- Generator: Adobe Illustrator 27.8.1, SVG Export Plug-In . SVG Version: 6.00 Build 0)  -->
<svg version="1.1" id="Layer_1" xmlns="http://www.w3.org/2000/svg" xmlns:xlink="http://www.w3.org/1999/xlink" x="0px" y="0px"
	 viewBox="0 0 100 104" style="enable-background:new 0 0 100 104;" xml:space="preserve">
<style type="text/css">
	.st0{fill:#57225E;}
</style>
<path class="st0" d="M78.7,63.3c-2,4.8-5.3,9.1-9.5,12.2s-9.1,5.2-14.4,5.8c-5.2,0.6-10.5-0.1-15.4-2.1c-4.8-2-9.1-5.3-12.2-9.5
	c-3.2-4.2-5.2-9.2-5.8-14.4c-0.6-5.2,0.1-10.5,2.2-15.4s5.4-9.1,9.6-12.2s9.2-5.2,14.4-5.8c0.4,0,0.7,0,1,0.2
	c0.3,0.2,0.6,0.4,0.7,0.8c0.2,0.3,0.2,0.7,0.2,1c-0.1,0.4-0.2,0.7-0.5,0.9c-2.1,2.1-3.8,4.7-5,7.5c-1.1,2.8-1.7,5.8-1.7,8.8
	c0,4,1.1,7.9,3.1,11.3c2,3.4,4.8,6.3,8.2,8.3c3.4,2,7.3,3.1,11.3,3.2c4,0.1,7.9-0.9,11.4-2.8c0.3-0.2,0.7-0.2,1.1-0.2
	c0.4,0,0.7,0.2,1,0.4c0.2,0.2,0.4,0.5,0.5,0.9C78.8,62.6,78.8,63,78.7,63.3z"/>
</svg>
