<svg width="138" height="138" viewBox="0 0 138 138" fill="none" xmlns="http://www.w3.org/2000/svg">
<g clip-path="url(#clip0_25_125)">
<path d="M134.375 3.375H3.125V134.625H134.375V3.375Z" fill="url(#paint0_radial_25_125)"/>
<path d="M137.5 137.75H0V0.25H137.5V137.75ZM6.25 131.5H131.25V6.5H6.25V131.5Z" fill="#00B5EF"/>
<path d="M43.75 106.5H31.25V31.5L48.886 31.5C61.9352 31.5 73.6107 41.0146 74.8778 54.0021C76.3318 68.9038 64.6089 81.5 50 81.5H43.75V106.5ZM43.75 69H50C56.8939 69 62.5 63.3939 62.5 56.5C62.5 49.6061 56.8939 44 50 44H43.75V69Z" fill="#00B5EF"/>
<path d="M88.9818 106.358C81.5183 105.71 76.0067 103.054 75.3293 102.716L80.9204 91.5342C80.9385 91.5448 86.0484 94 92.2272 94C94.7907 94 96.875 91.9157 96.875 89.3522C96.875 87.3502 95.5994 85.5772 93.6981 84.9454L90.6833 83.9413C84.306 81.8174 79.2053 76.4701 78.2911 69.8109C76.8466 59.2884 85.0254 50.25 95.2728 50.25C104.34 50.25 111.396 53.6471 112.17 54.0342L106.607 65.228C106.56 65.2045 101.451 62.75 95.2728 62.75C92.7094 62.75 90.625 64.8344 90.625 67.3978C90.625 69.3998 91.9006 71.1729 93.8019 71.8046L97.6502 73.0863C105.209 75.6058 110.094 83.0034 109.288 91.0915C108.312 100.882 98.7842 107.209 88.9818 106.358Z" fill="#00B5EF"/>
<path d="M137.5 137.75H0V0.25H137.5V137.75Z" fill="url(#paint1_linear_25_125)"/>
</g>
<defs>
<radialGradient id="paint0_radial_25_125" cx="0" cy="0" r="1" gradientUnits="userSpaceOnUse" gradientTransform="translate(48.9583 32.5417) scale(109.927)">
<stop stop-color="#193458" stop-opacity="0.98"/>
<stop offset="0.933387" stop-color="#210021"/>
</radialGradient>
<linearGradient id="paint1_linear_25_125" x1="-14.0536" y1="30.388" x2="151.554" y2="107.612" gradientUnits="userSpaceOnUse">
<stop stop-color="white" stop-opacity="0.2"/>
<stop offset="1" stop-color="white" stop-opacity="0"/>
</linearGradient>
<clipPath id="clip0_25_125">
<rect width="138" height="138" fill="white"/>
</clipPath>
</defs>
</svg>
