<svg width="139" height="138" viewBox="0 0 139 138" fill="none" xmlns="http://www.w3.org/2000/svg">
<rect width="138" height="138" transform="translate(0.5)" fill="#E0B1E6"/>
<path d="M18.4289 108.294H81.2917C83.4644 108.294 85.2206 106.538 85.2206 104.365V97.5525C86.9768 97.0063 88.6741 96.2952 90.2143 95.2698L96.0526 101.108C94.7797 102.381 94.5321 104.361 95.4633 105.909L103.797 119.798C103.962 120.073 104.162 120.328 104.386 120.552C106.684 122.851 109.702 123.998 112.719 123.998C115.737 123.998 118.754 122.851 121.052 120.552C125.649 115.956 125.649 108.483 121.052 103.886C120.824 103.658 120.573 103.462 120.298 103.297L106.409 94.9633C104.861 94.04 102.885 94.2797 101.608 95.5526L95.7697 89.7143C97.8835 86.5279 99.0268 82.7954 99.0268 78.8822C99.0268 73.6332 96.9799 68.7024 93.271 64.9935C90.9883 62.7108 88.2144 61.1471 85.2167 60.212V17.9289C85.2167 15.7562 83.4604 14 81.2877 14H34.1446C34.066 14 33.9992 14.0393 33.9246 14.0432C33.5553 14.0668 33.1977 14.1375 32.8481 14.2632C32.7302 14.3025 32.6123 14.334 32.5023 14.385C32.1016 14.5736 31.7205 14.8094 31.3904 15.1315C31.3826 15.1433 31.3708 15.1472 31.3629 15.1551L15.6551 30.8629C15.6472 30.8708 15.6433 30.8826 15.6315 30.8904C15.3133 31.2165 15.0776 31.5937 14.889 31.9945C14.834 32.1123 14.8025 32.2381 14.7593 32.3638C14.6414 32.7017 14.5707 33.0474 14.5471 33.4049C14.5432 33.4914 14.5 33.5621 14.5 33.6446V104.365C14.5 106.538 16.2562 108.294 18.4289 108.294ZM115.768 109.744C117.025 111.288 116.935 113.567 115.501 115.001C114.063 116.435 111.78 116.529 110.244 115.268L103.777 104.499L104.999 103.277L115.768 109.744ZM91.1729 78.8861C91.1729 82.0371 89.9432 84.9956 87.7194 87.2194C83.2679 91.6709 75.5044 91.6709 71.0529 87.2194C68.8291 84.9956 67.5994 82.0371 67.5994 78.8861C67.5994 75.7352 68.8291 72.7767 71.0529 70.5529C73.2767 68.3291 76.2351 67.0994 79.3861 67.0994C82.5371 67.0994 85.4956 68.3291 87.7194 70.5529C89.9432 72.7767 91.1729 75.7352 91.1729 78.8861ZM77.3628 59.438C72.8877 59.8977 68.7152 61.7718 65.4935 64.9974C61.7846 68.7024 59.7376 73.6371 59.7376 78.8861C59.7376 84.1352 61.7846 89.0699 65.4935 92.7749C68.7152 96.0005 72.8838 97.8746 77.3628 98.3343V100.436H22.3578V37.5735H34.1446C36.3173 37.5735 38.0735 35.8173 38.0735 33.6446V21.8578H77.3628V59.438ZM30.2157 27.4133V29.7157H27.9133L30.2157 27.4133Z" fill="#703778"/>
<path d="M34.1446 45.4314C31.9719 45.4314 30.2157 47.1876 30.2157 49.3603C30.2157 51.533 31.9719 53.2892 34.1446 53.2892H53.7892C55.9619 53.2892 57.7182 51.533 57.7182 49.3603C57.7182 47.1876 55.9619 45.4314 53.7892 45.4314H34.1446Z" fill="#703778"/>
<path d="M53.7892 65.0759H34.1446C31.9719 65.0759 30.2157 66.8322 30.2157 69.0048C30.2157 71.1775 31.9719 72.9338 34.1446 72.9338H53.7892C55.9619 72.9338 57.7182 71.1775 57.7182 69.0048C57.7182 66.8322 55.9619 65.0759 53.7892 65.0759Z" fill="#703778"/>
<path d="M45.9314 80.7917H34.1446C31.9719 80.7917 30.2157 82.548 30.2157 84.7207C30.2157 86.8934 31.9719 88.6496 34.1446 88.6496H45.9314C48.1041 88.6496 49.8603 86.8934 49.8603 84.7207C49.8603 82.548 48.1041 80.7917 45.9314 80.7917Z" fill="#703778"/>
</svg>
