<svg width="138" height="138" viewBox="0 0 138 138" fill="none" xmlns="http://www.w3.org/2000/svg">
<rect width="138" height="138" fill="#400647"/>
<path d="M17.9289 108.294H80.7917C82.9644 108.294 84.7206 106.538 84.7206 104.365V97.5525C86.4768 97.0063 88.1741 96.2952 89.7143 95.2698L95.5526 101.108C94.2797 102.381 94.0321 104.361 94.9633 105.909L103.297 119.798C103.462 120.073 103.662 120.328 103.886 120.552C106.184 122.851 109.202 123.998 112.219 123.998C115.237 123.998 118.254 122.851 120.552 120.552C125.149 115.956 125.149 108.483 120.552 103.886C120.324 103.658 120.073 103.462 119.798 103.297L105.909 94.9633C104.361 94.04 102.385 94.2797 101.108 95.5526L95.2697 89.7143C97.3835 86.5279 98.5268 82.7954 98.5268 78.8822C98.5268 73.6332 96.4799 68.7024 92.771 64.9935C90.4883 62.7108 87.7144 61.1471 84.7167 60.212V17.9289C84.7167 15.7562 82.9604 14 80.7877 14H33.6446C33.566 14 33.4992 14.0393 33.4246 14.0432C33.0553 14.0668 32.6977 14.1375 32.3481 14.2632C32.2302 14.3025 32.1123 14.334 32.0023 14.385C31.6016 14.5736 31.2205 14.8094 30.8904 15.1315C30.8826 15.1433 30.8708 15.1472 30.8629 15.1551L15.1551 30.8629C15.1472 30.8708 15.1433 30.8826 15.1315 30.8904C14.8133 31.2165 14.5776 31.5937 14.389 31.9945C14.334 32.1123 14.3025 32.2381 14.2593 32.3638C14.1414 32.7017 14.0707 33.0474 14.0471 33.4049C14.0432 33.4914 14 33.5621 14 33.6446V104.365C14 106.538 15.7562 108.294 17.9289 108.294ZM115.268 109.744C116.525 111.288 116.435 113.567 115.001 115.001C113.563 116.435 111.28 116.529 109.744 115.268L103.277 104.499L104.499 103.277L115.268 109.744ZM90.6729 78.8861C90.6729 82.0371 89.4432 84.9956 87.2194 87.2194C82.7679 91.6709 75.0044 91.6709 70.5529 87.2194C68.3291 84.9956 67.0994 82.0371 67.0994 78.8861C67.0994 75.7352 68.3291 72.7767 70.5529 70.5529C72.7767 68.3291 75.7351 67.0994 78.8861 67.0994C82.0371 67.0994 84.9956 68.3291 87.2194 70.5529C89.4432 72.7767 90.6729 75.7352 90.6729 78.8861ZM76.8628 59.438C72.3877 59.8977 68.2152 61.7718 64.9935 64.9974C61.2846 68.7024 59.2376 73.6371 59.2376 78.8861C59.2376 84.1352 61.2846 89.0699 64.9935 92.7749C68.2152 96.0005 72.3838 97.8746 76.8628 98.3343V100.436H21.8578V37.5735H33.6446C35.8173 37.5735 37.5735 35.8173 37.5735 33.6446V21.8578H76.8628V59.438ZM29.7157 27.4133V29.7157H27.4133L29.7157 27.4133Z" fill="#FCE7FF"/>
<path d="M33.6446 45.4314C31.4719 45.4314 29.7157 47.1876 29.7157 49.3603C29.7157 51.533 31.4719 53.2892 33.6446 53.2892H53.2892C55.4619 53.2892 57.2181 51.533 57.2181 49.3603C57.2181 47.1876 55.4619 45.4314 53.2892 45.4314H33.6446Z" fill="#FCE7FF"/>
<path d="M53.2892 65.0759H33.6446C31.4719 65.0759 29.7157 66.8322 29.7157 69.0048C29.7157 71.1775 31.4719 72.9338 33.6446 72.9338H53.2892C55.4619 72.9338 57.2181 71.1775 57.2181 69.0048C57.2181 66.8322 55.4619 65.0759 53.2892 65.0759Z" fill="#FCE7FF"/>
<path d="M45.4314 80.7917H33.6446C31.4719 80.7917 29.7157 82.548 29.7157 84.7207C29.7157 86.8934 31.4719 88.6496 33.6446 88.6496H45.4314C47.6041 88.6496 49.3603 86.8934 49.3603 84.7207C49.3603 82.548 47.6041 80.7917 45.4314 80.7917Z" fill="#FCE7FF"/>
</svg>
