<?xml version="1.0" encoding="utf-8"?>
<!-- Generator: Adobe Illustrator 27.8.1, SVG Export Plug-In . SVG Version: 6.00 Build 0)  -->
<svg version="1.1" id="Layer_1" xmlns="http://www.w3.org/2000/svg" xmlns:xlink="http://www.w3.org/1999/xlink" x="0px" y="0px"
	 viewBox="0 0 100 100" style="enable-background:new 0 0 100 100;" xml:space="preserve">
<style type="text/css">
	.st0{fill:#FCE7FF;}
</style>
<g>
	<path class="st0" d="M50,66.3c9,0,16.3-7.3,16.3-16.3S59,33.7,50,33.7S33.7,41,33.7,50S41,66.3,50,66.3z"/>
	<path class="st0" d="M50,29.8c0.5,0,1-0.2,1.4-0.6s0.6-0.8,0.6-1.4v-4.8c0-0.5-0.2-1-0.6-1.4c-0.4-0.4-0.8-0.6-1.4-0.6
		c-0.5,0-1,0.2-1.4,0.6c-0.4,0.4-0.6,0.8-0.6,1.4v4.8c0,0.5,0.2,1,0.6,1.4C49,29.6,49.5,29.8,50,29.8z"/>
	<path class="st0" d="M33,35.7c0.4,0.4,0.8,0.6,1.4,0.6s1-0.2,1.4-0.6c0.4-0.4,0.6-0.8,0.6-1.4s-0.2-1-0.6-1.4l-3.4-3.4
		c-0.2-0.2-0.4-0.4-0.6-0.5c-0.2-0.1-0.5-0.2-0.8-0.2c-0.3,0-0.5,0-0.8,0.1c-0.3,0.1-0.5,0.2-0.7,0.4c-0.2,0.2-0.3,0.4-0.4,0.7
		c-0.1,0.3-0.1,0.5-0.1,0.8c0,0.3,0.1,0.5,0.2,0.8c0.1,0.2,0.3,0.5,0.5,0.6L33,35.7z"/>
	<path class="st0" d="M29.8,50c0-0.5-0.2-1-0.6-1.4c-0.4-0.4-0.8-0.6-1.4-0.6h-4.8c-0.5,0-1,0.2-1.4,0.6c-0.4,0.4-0.6,0.8-0.6,1.4
		c0,0.5,0.2,1,0.6,1.4c0.4,0.4,0.8,0.6,1.4,0.6h4.8c0.5,0,1-0.2,1.4-0.6S29.8,50.5,29.8,50z"/>
	<path class="st0" d="M33,64.3l-3.4,3.4c-0.4,0.4-0.6,0.9-0.6,1.4s0.2,1,0.6,1.4c0.4,0.3,0.9,0.5,1.4,0.6c0.5,0,1-0.2,1.4-0.6
		l3.4-3.4c0.3-0.4,0.5-0.8,0.5-1.3c0-0.5-0.2-1-0.6-1.3c-0.3-0.3-0.8-0.5-1.3-0.6C33.9,63.7,33.4,63.9,33,64.3z"/>
	<path class="st0" d="M50,70.2c-0.5,0-1,0.2-1.4,0.6c-0.4,0.4-0.6,0.8-0.6,1.4v4.8c0,0.5,0.2,1,0.6,1.4c0.4,0.4,0.8,0.6,1.4,0.6
		c0.5,0,1-0.2,1.4-0.6c0.4-0.4,0.6-0.8,0.6-1.4v-4.8c0-0.5-0.2-1-0.6-1.4C51,70.4,50.5,70.2,50,70.2z"/>
	<path class="st0" d="M67,64.3c-0.4-0.3-0.8-0.5-1.3-0.5c-0.5,0-1,0.2-1.3,0.6c-0.3,0.3-0.5,0.8-0.6,1.3c0,0.5,0.2,1,0.5,1.3
		l3.4,3.4c0.4,0.4,0.9,0.5,1.4,0.6c0.5,0,1-0.2,1.4-0.6c0.4-0.4,0.6-0.9,0.6-1.4s-0.2-1-0.6-1.4L67,64.3z"/>
	<path class="st0" d="M76.9,48.1h-4.8c-0.5,0-1,0.2-1.4,0.6c-0.4,0.4-0.6,0.8-0.6,1.4c0,0.5,0.2,1,0.6,1.4c0.4,0.4,0.8,0.6,1.4,0.6
		h4.8c0.5,0,1-0.2,1.4-0.6c0.4-0.4,0.6-0.8,0.6-1.4c0-0.5-0.2-1-0.6-1.4C77.9,48.3,77.4,48.1,76.9,48.1z"/>
	<path class="st0" d="M65.6,36.3c0.2,0,0.5,0,0.7-0.1c0.2-0.1,0.4-0.2,0.6-0.4l3.4-3.4c0.3-0.4,0.5-0.8,0.4-1.3
		c0-0.5-0.2-0.9-0.6-1.3c-0.3-0.3-0.8-0.5-1.3-0.6c-0.5,0-1,0.1-1.3,0.4L64.3,33c-0.4,0.4-0.6,0.8-0.6,1.4c0,0.5,0.2,1,0.6,1.4
		c0.2,0.2,0.4,0.3,0.6,0.4C65.1,36.3,65.4,36.3,65.6,36.3z"/>
</g>
</svg>
