<svg width="139" height="138" viewBox="0 0 139 138" fill="none" xmlns="http://www.w3.org/2000/svg">
<rect width="138" height="138" transform="translate(0.5)" fill="#E0B1E6"/>
<path d="M46.923 41.4742L46.2159 40.7671L45.5088 41.4742L41.9733 45.0097L41.2662 45.7168L41.9733 46.4239L66.8986 71.3492L67.6057 72.0563L68.3128 71.3492L71.8483 67.8137L72.5554 67.1066L71.8483 66.3995L46.923 41.4742Z" fill="#703778" stroke="#703778" stroke-width="2"/>
<path d="M31.4571 29.5429L30.75 28.8358L30.0429 29.5429C19.3596 40.2262 13.5 54.2289 13.5 69C13.5 99.8023 38.6977 125 69.5 125C100.302 125 125.5 99.8023 125.5 69C125.5 38.1977 100.302 13 69.5 13H67H66V14V41.5V42.5H67H72H73V41.5V20.0595C98.4683 21.8057 118.5 43.135 118.5 69C118.5 95.9477 96.4477 118 69.5 118C42.5523 118 20.5 95.9477 20.5 69C20.5 56.0209 25.6406 43.7736 34.9571 34.4571L35.6642 33.75L34.9571 33.0429L31.4571 29.5429Z" fill="#703778" stroke="#703778" stroke-width="2"/>
</svg>
