<svg width="138" height="138" viewBox="0 0 138 138" fill="none" xmlns="http://www.w3.org/2000/svg">
<rect width="138" height="138" fill="#400647"/>
<path d="M46.4231 41.4742L45.716 40.7671L45.0089 41.4742L41.4734 45.0097L40.7663 45.7168L41.4734 46.4239L66.3986 71.3492L67.1057 72.0563L67.8128 71.3492L71.3483 67.8137L72.0554 67.1066L71.3483 66.3995L46.4231 41.4742Z" fill="#FCE7FF" stroke="#FCE7FF" stroke-width="2"/>
<path d="M30.9571 29.5429L30.25 28.8358L29.5429 29.5429C18.8596 40.2262 13 54.2289 13 69C13 99.8023 38.1977 125 69 125C99.8023 125 125 99.8023 125 69C125 38.1977 99.8023 13 69 13H66.5H65.5V14V41.5V42.5H66.5H71.5H72.5V41.5V20.0595C97.9683 21.8057 118 43.135 118 69C118 95.9477 95.9477 118 69 118C42.0523 118 20 95.9477 20 69C20 56.0209 25.1406 43.7736 34.4571 34.4571L35.1642 33.75L34.4571 33.0429L30.9571 29.5429Z" fill="#FCE7FF" stroke="#FCE7FF" stroke-width="2"/>
</svg>
